<?xml version="1.0" standalone="no"?>
<!DOCTYPE svg PUBLIC "-//W3C//DTD SVG 1.1//EN" "http://www.w3.org/Graphics/SVG/1.1/DTD/svg11.dtd" >
<svg xmlns="http://www.w3.org/2000/svg">
<metadata>Generated by IcoMoon</metadata>
<defs>
<font id="icomoon" horiz-adv-x="1024">
<font-face units-per-em="1024" ascent="960" descent="-64" />
<missing-glyph horiz-adv-x="1024" />
<glyph unicode="&#x20;" horiz-adv-x="512" d="" />
<glyph unicode="&#xe900;" glyph-name="n" d="M639.644 157.095c-59.196-48.564-128.568-80.935-212.275-80.935-138.746 0-243.266 80.935-243.266 209.039v2.316c0 92.038 49.484 157.239 141.062 198.872-35.146 49.484-50.877 95.273-50.877 145.217v2.316c0 99.428 80.016 190.545 219.682 190.545 123.489 0 203.955-80.935 203.955-182.218v-2.316c0-97.589-61.969-154.464-152.161-189.62l96.192-96.192c24.044 37.462 47.634 79.547 70.292 124.408l117.006-64.282c-27.753-50.877-59.196-104.519-95.273-153.084l106.835-106.835-117.006-81.855-84.17 84.63zM550.382 248.209l-138.746 141.062c-47.634-24.98-67.517-60.127-67.517-95.273v-1.856c0-50.877 42.554-85.093 101.744-85.093 36.072-0.46 71.228 15.257 104.519 41.157zM558.708 630.218v1.856c0 41.618-28.216 67.517-68.453 67.517-42.554 0-70.292-30.056-70.292-73.531v-2.316c0-31.911 12.482-55.955 42.554-90.181 62.902 24.044 96.192 51.34 96.192 96.655z" />
<glyph unicode="&#xe901;" glyph-name="add" d="M834.56 534.528h-237.056v236.032h-172.032v-236.544h-236.544v-172.544h236.544v-236.032h172.032v236.544h237.056z" />
<glyph unicode="&#xe902;" glyph-name="back" d="M824.832 702.976l-185.344 185.344-440.32-440.32 440.32-440.32 185.344 185.344-254.976 254.976z" />
<glyph unicode="&#xe903;" glyph-name="icon-booking" d="M664.576 733.184v145.92h-429.056c-63.488 0-108.544-42.496-113.664-105.472l-0.512-1.536v-496.64c0-0.512 0-0.512 0-1.024v0-4.096l0.512-1.024c5.12-63.488 50.176-105.472 113.664-105.984h123.904v-34.304c0-0.512 0-0.512 0-1.024v0-4.608l0.512-1.024c5.12-62.976 50.176-104.96 113.664-105.472h428.544v716.288h-237.568zM829.952 238.080h-359.936c-13.312 0-26.112-2.56-38.4-7.168v387.584c1.024 27.648 15.36 41.984 41.984 41.984h356.352v-422.4zM194.048 764.928c1.024 27.648 15.36 41.984 41.984 41.984h356.352v-74.24h-118.784c-33.792 0-62.464-12.288-82.944-33.28h-112.64v-72.192h81.408l-0.512-1.536v-241.152h-126.976c-13.312 0-26.112-2.56-37.888-6.656v387.072zM236.032 235.52c-26.112 0-40.448 13.824-41.984 41.472 1.536 19.968 17.92 35.84 37.888 35.84h127.488v-76.8h-123.392zM474.112 89.088c-26.112 0-40.448 13.824-41.984 41.472 1.536 19.968 17.92 35.328 37.888 35.328h359.936v-76.8h-355.84zM514.56 552.448h234.496v-72.192h-234.496v72.192z" />
<glyph unicode="&#xe904;" glyph-name="calendar" d="M862.208 81.92h-700.416v700.416h127.488v31.744h63.488v-31.744h318.464v31.744h63.488v-31.744h127.488v-700.416zM225.28 145.408h573.44v445.952h-573.44v-445.952zM225.28 654.848h573.44v64h-573.44v-64zM671.232 527.872h63.488v-63.488h-63.488v63.488zM671.232 400.384h63.488v-63.488h-63.488v63.488zM543.744 527.872h63.488v-63.488h-63.488v63.488zM543.744 400.384h63.488v-63.488h-63.488v63.488zM416.256 527.872h63.488v-63.488h-63.488v63.488zM416.256 400.384h63.488v-63.488h-63.488v63.488zM288.768 400.384h63.488v-63.488h-63.488v63.488zM543.744 272.896h63.488v-63.488h-63.488v63.488zM416.256 272.896h63.488v-63.488h-63.488v63.488zM288.768 272.896h63.488v-63.488h-63.488v63.488z" />
<glyph unicode="&#xe905;" glyph-name="clock" d="M512 59.904c-214.016 0-388.096 174.080-388.096 388.096s174.080 388.096 388.096 388.096 388.096-174.080 388.096-388.096-174.080-388.096-388.096-388.096zM512 763.392c-174.080 0-315.392-141.312-315.392-315.392s141.312-315.392 315.392-315.392 315.392 141.824 315.392 315.392-141.312 315.392-315.392 315.392zM617.472 299.008l-141.824 133.632v211.456h72.704v-180.736l118.784-112.128z" />
<glyph unicode="&#xe906;" glyph-name="delete" d="M775.68 651.776l-59.904 59.904-203.776-203.776-203.776 203.776-59.904-59.904 203.776-203.776-203.776-203.776 59.904-59.904 203.776 203.776 203.776-203.776 59.904 59.904-203.776 203.776z" />
<glyph unicode="&#xe907;" glyph-name="dots" d="M131.584 532.992h172.032v-169.984h-172.032v169.984zM435.2 532.992h172.032v-169.984h-172.032v169.984zM738.816 532.992h172.032v-169.984h-172.032v169.984z" />
<glyph unicode="&#xe908;" glyph-name="edit" d="M127.488 63.488l36.864 257.024 512 512 220.16-220.16-512-512-257.024-36.864zM244.224 280.576l-16.896-117.248 117.248 16.896 432.128 432.128-100.352 100.352-432.128-432.128z" />
<glyph unicode="&#xe909;" glyph-name="email" d="M104.96 730.112v-564.224h814.592v564.224h-814.592zM762.88 657.92l-250.88-166.4-250.88 166.4h501.76zM177.152 238.080v388.608l334.848-222.208 334.848 222.208v-388.608h-669.696z" />
<glyph unicode="&#xe90a;" glyph-name="next" d="M66.048 532.992h172.032v-169.984h-172.032v169.984zM369.664 532.992h172.032v-169.984h-172.032v169.984zM867.328 569.856l-167.424 167.424-121.344-121.856 167.424-167.424-167.424-167.424 121.344-121.856 289.28 289.28z" />
<glyph unicode="&#xe90b;" glyph-name="return" d="M535.040 836.096v-72.192c174.080 0 315.392-141.824 315.392-315.392s-141.824-315.392-315.392-315.392-315.904 140.8-315.904 314.88c0 90.624 38.912 176.128 105.984 236.032v-188.416h72.192v296.448h-295.936v-72.192h157.184c-71.168-72.192-111.616-169.472-111.616-271.872 0-214.016 174.080-388.096 388.096-388.096s388.096 174.080 388.096 388.096-174.592 388.096-388.096 388.096z" />
<glyph unicode="&#xe90c;" glyph-name="search" d="M866.816 160.768l-163.84 163.84c33.792 48.64 53.76 107.52 53.76 171.008 0 165.376-134.656 300.032-300.032 300.032s-299.52-134.656-299.52-300.032 134.656-300.032 300.032-300.032c71.168 0 136.704 25.088 187.904 66.56l161.792-161.792 59.904 60.416zM457.216 280.576c-118.784 0-215.040 96.256-215.040 215.040s96.256 215.040 215.040 215.040 215.040-96.256 215.040-215.040-96.768-215.040-215.040-215.040z" />
<glyph unicode="&#xe90d;" glyph-name="user" d="M830.464 97.792h-63.488c0 140.288-114.176 254.976-254.976 254.976-140.288 0-254.976-114.176-254.976-254.976h-63.488c0 131.584 79.872 244.224 193.536 292.864-59.392 39.936-98.304 108.032-98.304 184.832 0 122.88 99.84 223.232 222.72 223.232s223.232-99.84 223.232-223.232c0-76.8-38.912-144.384-98.304-184.832 114.176-48.64 194.048-161.792 194.048-292.864zM512 734.72c-88.064 0-159.232-71.68-159.232-159.232 0-88.064 71.68-159.232 159.232-159.232s159.232 71.68 159.232 159.232c0 87.552-71.168 159.232-159.232 159.232z" />
<glyph unicode="&#xe90e;" glyph-name="viewA" d="M158.208 801.792h311.296v-311.296h-311.296v311.296zM554.496 801.792h311.296v-311.296h-311.296v311.296zM158.208 405.504h311.296v-311.296h-311.296v311.296zM554.496 405.504h311.296v-311.296h-311.296v311.296z" />
<glyph unicode="&#xe90f;" glyph-name="viewB" d="M160.256 718.336h704v-110.080h-704v110.080zM160.256 502.784h704v-110.080h-704v110.080zM160.256 287.232h704v-110.080h-704v110.080z" />
<glyph unicode="&#xe910;" glyph-name="wifi" d="M512 252.416c-29.184 0-55.296-12.8-73.728-33.28l73.728-73.216 73.728 73.728c-18.432 19.968-44.544 32.768-73.728 32.768v0zM133.632 524.288c96.256 98.304 230.4 159.232 378.368 159.232s282.112-60.928 378.368-159.232l47.104 47.104c-108.544 110.080-259.072 178.688-425.472 178.688s-316.928-68.608-425.472-178.688l47.104-47.104zM512 584.192c-120.832 0-229.888-50.176-308.224-130.048l47.104-47.104c66.56 68.096 158.72 110.592 261.12 110.592s195.072-42.496 261.12-110.592l47.104 47.104c-78.336 79.872-187.392 130.048-308.224 130.048v0zM512 418.304c-74.752 0-142.848-31.232-190.976-81.408l46.592-46.592c36.352 37.888 87.552 61.952 143.872 61.952s108.032-24.064 143.872-61.952l46.592 47.104c-47.104 49.664-115.2 80.896-189.952 80.896v0z" />
<glyph unicode="&#xe911;" glyph-name="arrow-down" d="M427.008 909.312h169.984v-172.032h-169.984v172.032zM427.008 605.696h169.984v-172.032h-169.984v172.032zM633.856 108.032l167.424 167.424-121.856 121.856-167.424-167.424-167.424 167.424-121.856-121.856 167.424-167.424 121.856-121.344z" />
<glyph unicode="&#xe912;" glyph-name="check" d="M409.549 215.501l-202.547 202.598 57.549 57.498 144.998-144.998 349.901 349.901 57.549-57.549-407.45-407.45z" />
<glyph unicode="&#xe913;" glyph-name="notification" d="M633.344 448c10.24 0 18.432 8.192 18.432 18.432h54.784v18.432c-10.24 0-18.432 8.192-18.432 18.432v54.272c0 24.064-15.36 44.032-36.864 51.2 0 1.024 0.512 2.048 0.512 3.072 0 10.24-8.192 18.432-18.432 18.432s-18.432-8.192-18.432-18.432c0-1.024 0-2.048 0.512-3.072-21.504-7.68-36.864-27.648-36.864-51.2v-54.784c0-10.24-8.192-18.432-18.432-18.432v-18.432h54.784c0.512-9.728 8.704-17.92 18.432-17.92zM359.936 235.52h121.344v-60.928h-121.344v60.928zM664.064 751.616c0 15.872-5.632 32.256-17.408 43.52-11.264 11.264-27.648 17.408-43.52 17.408h-364.544c-15.872 0-32.256-5.632-43.52-17.408-11.264-11.264-17.408-27.648-17.408-43.52v-607.232c0-15.872 5.632-32.256 17.408-43.52 11.264-11.264 27.648-17.408 43.52-17.408h364.544c15.872 0 32.256 5.632 43.52 17.408 11.264 11.264 17.408 27.648 17.408 43.52v212.48h182.272v364.544h-182.272v30.208zM603.136 144.384h-364.544v607.232h364.544v-30.208h-182.272v-364.544h60.928v-87.040l121.344 80.896v-206.336zM785.408 660.48v-243.2h-191.488l-51.712-34.304v34.304h-60.416v243.2h303.616z" />
<glyph unicode="&#xe914;" glyph-name="autoticketing" d="M902.656 605.184v32.256h-67.072v66.56h-31.744c-7.68 0-13.824 6.144-13.824 13.824v32.256h-666.112v-32.256c0-7.168-5.632-12.8-12.288-13.824-0.512 0-1.024 0-2.048 0l-33.792 2.048v-404.48l33.792 2.048c0.512 0 1.536 0 2.048 0 6.656-0.512 12.288-6.656 12.288-13.312l0.512-31.744h64v-69.632l33.792 2.048c0.512 0 1.536 0 2.048 0 6.656-0.512 12.288-6.656 12.288-13.312l0.512-31.744h665.6l0.512 31.744c0 7.68 6.144 13.312 13.824 13.312h32.256v400.384h-32.768c-7.68 0-13.824 6.144-13.824 13.824zM236.544 636.928v-32.256c0-7.168-5.632-12.8-12.288-13.824-0.512 0-1.024 0-2.048 0l-33.792 2.048v-270.848h-7.68c-8.192 17.92-23.040 31.744-40.96 39.424v284.16c18.432 7.68 33.28 22.016 41.472 39.936h551.936c7.68-17.408 21.504-31.232 38.912-38.912v-9.728h-535.552zM252.416 249.344v283.648c18.432 7.68 33.28 22.016 41.472 39.936h401.408v-363.008h-401.92c-8.192 17.92-23.040 32.256-40.96 39.424zM884.224 248.32c-16.896-7.68-30.72-21.504-38.4-38.4h-87.040v363.008h86.528c7.68-17.408 21.504-31.232 38.912-38.912v-285.696z" />
<glyph unicode="&#xe915;" glyph-name="queue_mgmt" d="M513.536 571.904h378.88v-64h-378.88v64zM365.056 401.92h527.36v-64h-527.36v64zM365.056 231.936h527.36v-64h-527.36v64zM365.056 584.704c16.384 0 32.768-3.072 47.616-9.216l24.576 59.392c-12.8 5.12-26.624 9.216-39.936 11.264v50.176h-64.512v-50.176c-28.672-5.12-54.784-16.384-77.824-32.256l-36.864 36.864-45.056-45.056 36.864-36.864c-15.872-23.040-27.136-49.664-31.744-78.336h-46.592v-64h47.104c5.12-28.16 15.872-54.272 32.768-77.312l-19.968-19.968 45.568-45.056 64 64-23.040 22.528c-24.576 23.552-37.888 55.808-37.888 89.6-0.512 68.096 55.808 124.416 124.928 124.416z" />
<glyph unicode="&#xe916;" glyph-name="terminal_entry" d="M276.787 743.68l-56.525-56.474 239.206-239.206-239.206-239.206 56.525-56.474 295.68 295.68-295.68 295.68zM570.778 233.37h232.96v-81.050h-232.96v81.050z" />
<glyph unicode="&#xe917;" glyph-name="ticketing" d="M911.36 707.584v32.256h-795.648v-32.256c0-12.8-9.728-23.040-22.016-23.552-1.024 0-1.536 0-2.56 0l-33.792 2.048v-477.184l33.792 2.048c1.024 0 1.536 0 2.56 0 12.288-0.512 22.016-10.752 22.016-23.040l0.512-31.744h795.136l0.512 31.744c0 12.8 10.752 23.040 23.552 23.040h32.256v473.088h-32.256c-13.312 0-24.064 10.24-24.064 23.552zM120.832 270.336v354.304c24.064 8.192 43.52 27.136 52.736 50.688h499.2v-455.168h-499.712c-9.216 23.552-28.672 41.984-52.224 50.176zM903.168 269.312c-22.016-8.704-39.936-26.624-49.152-48.64h-117.248v454.656h116.736c8.704-22.528 27.136-40.448 49.664-49.664v-356.352z" />
<glyph unicode="&#xe918;" glyph-name="move_queue" d="M455.68 548.352h382.464v-64h-382.464v64zM306.176 376.832h531.968v-64h-531.968v64zM306.176 205.312h531.968v-64h-531.968v64zM307.2 572.928l45.056-45.056 109.056 109.056-109.056 108.544-45.056-45.056 31.744-31.744h-74.752c-60.928 0-110.592-49.664-110.592-110.592v-179.2h64v179.2c0 25.6 20.992 46.592 46.592 46.592h74.24l-31.232-31.744z" />
<glyph unicode="&#xe919;" glyph-name="error" d="M908.288 126.976l-368.128 672.768c-5.632 10.24-16.384 16.384-28.16 16.384s-22.528-6.144-28.16-16.384l-368.128-672.768c-5.632-9.728-5.12-22.016 0.512-31.744s16.384-15.872 27.648-15.872h736.256c11.264 0 22.016 6.144 27.648 15.872s5.632 22.016 0.512 31.744zM198.144 143.872l313.856 573.44 313.856-573.952h-627.712zM480.256 527.872h64v-203.776h-64v203.776zM480.256 281.6h64v-67.584h-64v67.584z" />
<glyph unicode="&#xe91a;" glyph-name="api" d="M196.096 546.816l-9.216 33.792c-61.44-10.752-78.336-32.256-78.336-66.048 0-5.12 1.024-17.408 1.024-23.040 0-26.112-10.752-34.304-36.864-34.304h-8.704v-38.912h8.704c26.112 0 36.864-8.192 36.864-34.304 0-5.632-1.024-17.92-1.024-23.040 0-34.304 16.896-55.808 78.336-66.048l9.216 33.792c-35.328 10.24-40.96 19.456-40.96 39.936 0 6.656 1.024 17.92 1.024 24.576 0 24.576-12.288 37.376-34.816 45.056 22.528 7.168 34.816 20.48 34.816 45.056 0 7.168-1.024 17.92-1.024 24.576 0 19.456 5.12 28.672 40.96 38.912zM320 561.664l-100.352-236.032h52.736l21.504 52.736h99.328l21.504-52.736h53.76l-100.864 236.032h-47.616zM312.32 423.936l30.72 75.776 31.232-75.776h-61.952zM600.064 560.128h-95.744v-234.496h51.712v70.144h39.424c52.736 0 94.72 28.16 94.72 82.432v0.512c-0.512 48.128-34.304 81.408-90.112 81.408zM637.44 477.184c0-19.968-14.848-35.328-40.96-35.328h-40.96v71.68h39.936c25.6 0 41.984-12.288 41.984-35.328v-1.024zM730.112 560.128h51.712v-234.496h-51.712v234.496zM951.296 456.704c-26.112 0-36.864 8.192-36.864 34.304 0 5.632 1.024 17.92 1.024 23.040 0 34.304-16.896 55.808-78.336 66.048l-9.216-33.792c35.328-10.24 40.96-19.456 40.96-39.936 0-6.656-1.024-17.92-1.024-24.576 0-24.576 12.288-37.376 34.816-45.056-22.528-7.168-34.816-20.48-34.816-45.056 0-7.168 1.024-17.92 1.024-24.576 0-20.48-5.12-29.696-40.96-39.936l9.216-33.792c61.44 10.752 78.336 32.256 78.336 66.048 0 5.12-1.024 17.408-1.024 23.040 0 26.112 10.752 34.304 36.864 34.304h8.704v38.912h-8.704z" />
<glyph unicode="&#xe91b;" glyph-name="duplicate" d="M720.384 640v144.896h-552.96v-552.96h144.896v-144.896h552.96v552.96h-144.896zM312.32 314.368h-62.464v388.608h388.608v-62.976h-326.144v-325.632zM783.36 169.472h-388.608v388.608h388.608v-388.608z" />
</font>
</defs>
</svg>
