<?xml version="1.0" standalone="no"?>
<!DOCTYPE svg PUBLIC "-//W3C//DTD SVG 1.1//EN" "http://www.w3.org/Graphics/SVG/1.1/DTD/svg11.dtd" >
<svg xmlns="http://www.w3.org/2000/svg">
<metadata>Generated by IcoMoon</metadata>
<defs>
<font id="Travelport" horiz-adv-x="1024">
<font-face units-per-em="1024" ascent="960" descent="-64" />
<missing-glyph horiz-adv-x="1024" />
<glyph unicode="&#x20;" horiz-adv-x="512" d="" />
<glyph unicode="&#xe900;" glyph-name="queue2" d="M473.498 530.022h329.728v-40.192h-329.728v40.192zM344.474 382.003h458.752v-40.192h-458.752v40.192zM344.474 234.035h458.752v-40.192h-458.752v40.192zM350.669 553.318l28.211-28.518 88.576 88.576-88.576 88.73-28.416-28.416 40.090-40.141h-82.125c-48.369-0.058-87.567-39.239-87.654-87.595v-154.274h40.346v154.266c0.029 26.201 21.261 47.433 47.46 47.462h82.23z" />
<glyph unicode="&#xe901;" glyph-name="queue3" d="M220.774 337.92h329.728v-40.192h-329.728v40.192zM220.774 485.888h458.803v-40.192h-458.803v40.192zM220.774 633.907h458.803v-40.192h-458.803v40.192zM762.88 436.224v-154.419c-0.029-26.201-21.261-47.433-47.46-47.462h-82.23l40.090 40.090-28.16 28.416-88.627-88.576 88.627-88.832 28.416 28.416-40.090 40.141h82.381c48.387 0.058 87.596 39.268 87.654 87.649v154.579z" />
<glyph unicode="&#xe902;" glyph-name="pnrok" d="M614.758 216.064h-322.867v100.864h-40.346v-141.261h403.61v141.261h-40.397v-100.864zM311.501 506.573h-56.32v-136.346h30.259v38.605h26.112c17.050 0 30.72 4.403 40.090 13.158 8.953 8.676 14.51 20.812 14.51 34.246 0 0.921-0.026 1.836-0.078 2.744l0.006-0.126c0.036 0.672 0.057 1.458 0.057 2.249 0 13.064-5.637 24.812-14.611 32.943l-0.038 0.034c-9.472 8.294-22.938 12.493-39.987 12.493zM337.101 458.086c0.039-0.467 0.062-1.012 0.062-1.561 0-5.898-2.591-11.192-6.696-14.804l-0.022-0.019c-5.036-3.569-11.307-5.705-18.076-5.705-0.756 0-1.505 0.027-2.248 0.079l0.1-0.006h-24.832v43.469h24.781c0.725 0.058 1.569 0.091 2.422 0.091 6.737 0 12.993-2.062 18.17-5.59l-0.112 0.072c3.974-3.49 6.469-8.582 6.469-14.257 0-0.569-0.025-1.131-0.074-1.687l0.005 0.072zM409.293 506.573h-27.648v-136.346h29.696v85.197l63.642-85.197h27.648v136.346h-29.491v-85.402l-63.846 85.402zM559.974 408.832h30.362l22.63-38.707h34.918l-29.85 44.954c7.437 3.632 13.488 9.108 17.713 15.847l0.105 0.179c4.422 7.493 7.035 16.51 7.035 26.137 0 0.513-0.007 1.025-0.022 1.535l0.002-0.075c0.040 0.701 0.063 1.521 0.063 2.347 0 13.107-5.726 24.876-14.814 32.942l-0.045 0.040c-9.677 8.243-23.501 12.442-40.96 12.442h-57.344v-136.346h30.259zM607.13 441.651c-4.985-3.541-11.194-5.66-17.899-5.66-0.782 0-1.558 0.029-2.325 0.086l0.103-0.006h-27.034v43.469h27.034c0.661 0.049 1.432 0.077 2.21 0.077 6.687 0 12.893-2.058 18.020-5.574l-0.109 0.070c4.085-3.523 6.655-8.705 6.655-14.488 0-0.487-0.018-0.97-0.054-1.448l0.004 0.064c0.045-0.504 0.071-1.090 0.071-1.682 0-5.9-2.572-11.2-6.656-14.838l-0.020-0.017zM772.506 691.917l-28.416 28.416-108.902-108.902-48.128 48.179-28.416-28.416 76.544-76.544 137.318 137.267zM291.891 660.019h214.682v40.397h-255.027v-141.312h40.346v100.915z" />
<glyph unicode="&#xe903;" glyph-name="pnrremove" d="M669.491 219.29h-322.918v100.915h-40.346v-141.261h403.61v141.261h-40.346v-100.915zM367.309 509.85h-56.32v-136.346h30.259v38.656h26.112c17.050 0 30.72 4.403 40.090 13.158 8.953 8.676 14.51 20.812 14.51 34.246 0 0.921-0.026 1.836-0.078 2.744l0.006-0.126c0.041 0.713 0.064 1.547 0.064 2.387 0 13.019-5.598 24.73-14.518 32.859l-0.035 0.032c-9.574 8.192-23.040 12.39-40.090 12.39zM392.909 461.363c0.039-0.467 0.062-1.012 0.062-1.561 0-5.898-2.591-11.192-6.696-14.804l-0.022-0.019c-5.036-3.569-11.307-5.705-18.076-5.705-0.756 0-1.505 0.027-2.248 0.079l0.1-0.006h-24.832v43.469h24.781c0.725 0.058 1.569 0.091 2.422 0.091 6.737 0 12.993-2.062 18.17-5.59l-0.112 0.072c3.982-3.491 6.482-8.587 6.482-14.268 0-0.619-0.030-1.231-0.088-1.835l0.006 0.077zM437.453 509.85v-136.346h29.696v85.197l63.642-85.197h27.648v136.346h-29.491v-85.402l-63.846 85.402h-27.648zM691.61 434.534v0c4.422 7.493 7.035 16.51 7.035 26.137 0 0.513-0.007 1.025-0.022 1.535l0.002-0.075c0.040 0.701 0.063 1.521 0.063 2.347 0 13.107-5.726 24.876-14.814 32.942l-0.045 0.040c-9.677 8.243-23.501 12.442-40.96 12.442h-57.293v-136.346h30.259v38.605h30.362l22.63-38.707h34.918l-29.85 44.954c7.405 3.676 13.422 9.184 17.61 15.945l0.106 0.183zM669.542 461.363c0.040-0.474 0.063-1.025 0.063-1.582 0-5.872-2.548-11.149-6.598-14.786l-0.018-0.016c-4.985-3.541-11.194-5.66-17.899-5.66-0.782 0-1.558 0.029-2.325 0.086l0.103-0.006h-27.034v43.418h27.034c0.661 0.049 1.432 0.077 2.21 0.077 6.687 0 12.893-2.058 18.020-5.574l-0.109 0.070c4.063-3.522 6.618-8.691 6.618-14.456 0-0.552-0.023-1.099-0.069-1.64l0.005 0.070zM346.573 663.296h174.541v40.346h-214.886v-141.261h40.346v100.915zM717.773 688.538l-28.518 28.518-46.746-46.746-46.694 46.746-28.57-28.518 46.746-46.746-46.746-46.746 28.57-28.518 46.694 46.746 46.746-46.746 28.518 28.518-46.694 46.746 46.694 46.746z" />
<glyph unicode="&#xe904;" glyph-name="pnrupdate" d="M645.222 225.792h-322.867v100.864h-40.397v-141.261h403.661v141.261h-40.397v-100.864zM343.040 516.301h-56.32v-136.346h30.208v38.605h26.112c17.050 0 30.72 4.403 40.090 13.158 8.95 8.676 14.505 20.81 14.505 34.241 0 0.887-0.024 1.768-0.072 2.642l0.005-0.122c0.041 0.713 0.064 1.547 0.064 2.387 0 13.019-5.598 24.73-14.518 32.859l-0.035 0.032c-9.318 8.346-22.938 12.544-40.038 12.544zM368.64 467.814c0.039-0.467 0.062-1.012 0.062-1.561 0-5.898-2.591-11.192-6.696-14.804l-0.022-0.019c-5.036-3.569-11.307-5.705-18.076-5.705-0.756 0-1.505 0.027-2.248 0.079l0.1-0.006h-24.832v43.469h24.781c0.725 0.058 1.569 0.091 2.422 0.091 6.737 0 12.993-2.062 18.17-5.59l-0.112 0.072c4.009-3.492 6.529-8.606 6.529-14.309 0-0.604-0.028-1.202-0.084-1.792l0.006 0.075zM504.73 430.899l-63.846 85.402h-27.648v-136.346h29.696v85.197l63.642-85.197h27.648v136.346h-29.491v-85.402zM591.565 418.56h30.362l22.63-38.707h34.918l-29.85 44.954c7.437 3.632 13.488 9.108 17.713 15.847l0.105 0.179c4.393 7.473 6.988 16.461 6.988 26.055 0 0.56-0.009 1.118-0.026 1.674l0.002-0.081c0.040 0.701 0.063 1.521 0.063 2.347 0 13.107-5.726 24.876-14.814 32.942l-0.045 0.040c-9.677 8.243-23.501 12.442-40.96 12.442h-57.344v-136.346h30.259zM645.12 467.814c0.040-0.474 0.063-1.025 0.063-1.582 0-5.872-2.548-11.149-6.598-14.786l-0.018-0.016c-4.985-3.541-11.194-5.66-17.899-5.66-0.782 0-1.558 0.029-2.325 0.086l0.103-0.006h-27.034v43.418h27.034c0.717 0.057 1.552 0.090 2.395 0.090 6.695 0 12.909-2.063 18.040-5.587l-0.108 0.070c3.951-3.515 6.428-8.613 6.428-14.29 0-0.611-0.029-1.216-0.085-1.812l0.006 0.076zM322.355 669.747h201.267v40.397h-241.664v-141.312h40.397v100.915zM654.438 601.139l-17.766 17.766-28.416-28.416 66.867-66.867 66.867 66.867-28.416 28.416-18.739-18.688c-4.617 61.84-55.873 110.278-118.466 110.387h-0.011v-40.192c40.112-0.049 73.195-30.083 78.041-68.888l0.039-0.385z" />
<glyph unicode="&#xe905;" glyph-name="queue4" d="M466.995 530.227h330.189v-40.192h-330.189v40.192zM337.766 382.003h459.418v-40.192h-459.418v40.192zM337.766 233.83h459.418v-40.192h-459.418v40.192zM348.774 434.893l28.518 28.518-46.694 46.746 46.694 46.694-28.518 28.57-46.746-46.746-46.694 46.746-28.518-28.57 46.694-46.694-46.694-46.746 28.518-28.518 46.694 46.694 46.746-46.694z" />
<glyph unicode="&#xe906;" glyph-name="sendemail" d="M188.877 695.91v-452.301h646.246v452.301zM749.824 655.718l-237.824-161.638-237.824 161.638zM229.018 283.75v354.15l282.982-192.461 282.982 192.41v-354.15z" />
<glyph unicode="&#xe907;" glyph-name="sendjson" d="M792.166 434.995v239.155h-646.298v-452.301h159.078v40.192h-118.938v354.099l282.982-192.41 282.982 192.41v-181.146zM231.219 634.010h475.597l-237.824-161.741zM387.686 334.336h45.158v-64.563c0.028-0.371 0.043-0.804 0.043-1.24 0-4.238-1.484-8.13-3.961-11.183l0.026 0.033c-2.553-2.581-6.095-4.179-10.011-4.179-0.333 0-0.663 0.012-0.99 0.034l0.044-0.002c-4.721 0.148-9.11 1.44-12.94 3.605l0.14-0.073c-5.124 2.771-9.501 6.185-13.231 10.208l-0.030 0.032-2.253 2.406-14.541-23.091 1.178-1.434c9.758-12.513 24.835-20.484 41.774-20.484 0.236 0 0.471 0.002 0.706 0.005h-0.036c1.016-0.089 2.199-0.14 3.394-0.14 22.82 0 41.318 18.499 41.318 41.318 0 1.311-0.061 2.608-0.18 3.887l0.012-0.164v92.416h-75.622zM564.838 299.827c-6.037 2.77-13.398 5.49-20.98 7.691l-1.189 0.296c-6.050 1.734-10.966 3.478-15.751 5.473l0.954-0.353c-3.257 1.325-6.044 3.16-8.405 5.435l0.008-0.008c-1.805 1.783-2.922 4.258-2.922 6.994 0 0.097 0.001 0.194 0.004 0.291v-0.014c-0.002 0.072-0.004 0.157-0.004 0.242 0 2.984 1.636 5.585 4.060 6.957l0.040 0.021c5.888 3.789 16.64 4.198 30.72-0.307 7.704-2.526 14.378-5.683 20.565-9.546l-0.392 0.228 2.458-1.485 12.237 26.573-1.843 1.229c-6.583 4.226-14.183 7.718-22.264 10.084l-0.623 0.156c-7.767 2.43-16.697 3.833-25.955 3.84h-0.004c-0.203 0.002-0.442 0.003-0.682 0.003-9.409 0-18.378-1.883-26.551-5.292l0.456 0.169c-7.476-3.001-13.681-7.839-18.25-13.969l-0.079-0.111c-4.104-5.784-6.56-12.988-6.56-20.766 0-0.241 0.002-0.482 0.007-0.723l-0.001 0.036c-0.021-0.446-0.033-0.969-0.033-1.494 0-7.55 2.472-14.522 6.651-20.152l-0.064 0.091c4.036-5.161 9.188-9.263 15.108-11.979l0.252-0.104c5.897-2.616 13.227-5.267 20.753-7.455l1.314-0.327c6.4-1.843 11.52-3.533 15.36-5.12 3.254-1.201 6.048-2.94 8.413-5.134l-0.016 0.014c1.814-1.913 2.93-4.505 2.93-7.357 0-3.744-1.923-7.039-4.835-8.951l-0.041-0.025c-7.27-5.12-21.709-5.12-37.12 1.434-8.31 3.587-15.44 8.289-21.601 14.020l0.046-0.042-2.509 2.355-12.851-26.214 1.485-1.28c7.46-6.492 16.162-11.804 25.666-15.512l0.6-0.206c9.099-3.691 19.652-5.849 30.704-5.888h0.016c0.172-0.002 0.375-0.002 0.578-0.002 9.497 0 18.555 1.882 26.82 5.293l-0.468-0.171c7.699 3.073 14.094 8.035 18.812 14.326l0.080 0.112c4.358 6.018 6.971 13.547 6.971 21.687 0 0.26-0.003 0.519-0.008 0.777l0.001-0.039c0.021 0.452 0.033 0.983 0.033 1.516 0 7.627-2.47 14.676-6.655 20.393l0.068-0.097c-4.081 5.263-9.281 9.463-15.26 12.283l-0.254 0.108zM704.461 354.304c-10.651 5.749-23.312 9.128-36.762 9.128s-26.111-3.379-37.18-9.334l0.419 0.206c-21.463-12.152-35.713-34.833-35.713-60.842 0-12.978 3.548-25.127 9.726-35.531l-0.177 0.321c6.379-10.759 15.236-19.436 25.817-25.42l0.346-0.18c10.63-5.876 23.305-9.334 36.787-9.334s26.157 3.458 37.186 9.536l-0.398-0.201c10.926 6.166 19.783 14.842 25.987 25.279l0.176 0.321c6.16 10.124 9.806 22.366 9.806 35.46 0 26-14.377 48.643-35.616 60.411l-0.354 0.18zM703.795 272.384c-3.742-6.42-8.94-11.618-15.162-15.253l-0.198-0.107c-5.948-3.527-13.111-5.611-20.762-5.611s-14.813 2.084-20.953 5.716l0.191-0.105c-6.386 3.787-11.573 8.974-15.251 15.162l-0.109 0.198c-3.674 6.112-5.848 13.489-5.848 21.373 0 15.545 8.449 29.118 21.005 36.375l0.202 0.108c5.99 3.509 13.191 5.581 20.875 5.581 0.059 0 0.118 0 0.177 0h-0.009c0.019 0 0.042 0 0.066 0 7.524 0 14.568-2.054 20.602-5.632l-0.187 0.103c6.435-3.722 11.638-8.925 15.254-15.162l0.106-0.198c3.51-6.009 5.582-13.228 5.582-20.932 0-0.129-0.001-0.258-0.002-0.387v0.020c0-0.069 0.001-0.151 0.001-0.233 0-7.749-2.071-15.014-5.691-21.271l0.109 0.205zM848.64 361.779v-85.453l-63.846 85.453h-27.648v-136.346h29.696v85.197l63.642-85.197h27.648v136.346h-29.491z" />
<glyph unicode="&#xe908;" glyph-name="sms" d="M621.466 694.886h-266.24v84.89h-40.038v-561.306c0.058-32.367 26.222-58.603 58.556-58.778h247.518c32.439 0.058 58.719 26.339 58.778 58.772v417.644c-0.058 32.367-26.222 58.603-58.556 58.778h-0.017zM355.226 654.694h266.24c10.231-0.058 18.506-8.351 18.534-18.583v-110.697h-284.672v129.331zM621.466 199.834h-247.706c-10.293 0-18.637 8.344-18.637 18.637v0 266.752h284.877v-266.752c-0.029-10.235-8.304-18.528-18.529-18.586h-0.006zM395.725 444.774h40.704v-40.704h-40.704v40.704zM477.235 444.774h40.704v-40.704h-40.704v40.704zM558.746 444.774h40.704v-40.704h-40.704v40.704zM395.725 363.059h40.704v-40.704h-40.704v40.704zM477.235 363.059h40.704v-40.704h-40.704v40.704zM558.746 363.059h40.704v-40.704h-40.704v40.704zM395.725 281.446h40.704v-40.704h-40.704v40.704zM477.235 281.446h40.704v-40.704h-40.704v40.704zM558.746 281.446h40.704v-40.704h-40.704v40.704z" />
<glyph unicode="&#xe909;" glyph-name="duplicate" d="M811.981 548.301l-112.64 112.64c-8.554 8.663-20.431 14.029-33.56 14.029-0.064 0-0.127 0-0.191 0h-188.764c-46.076-0.058-83.405-37.423-83.405-83.507 0-0.036 0-0.072 0-0.108v0.006-385.331c0.058-46.040 37.365-83.347 83.399-83.405h267.526c46.040 0.058 83.347 37.365 83.405 83.399v304.236c0 0.026 0 0.058 0 0.089 0 14.83-6.028 28.253-15.768 37.951l-0.002 0.002zM698.061 603.341l58.624-58.624h-58.624zM744.141 164.454h-267.315c-22.996 0.116-41.597 18.771-41.626 41.776v385.129c0.029 23.062 18.717 41.75 41.776 41.779h179.612v-130.048h129.69v-296.96c-0.087-23.036-18.782-41.677-41.83-41.677-0.036 0-0.072 0-0.108 0h0.006zM237.875 304.64v385.126c0.029 23.062 18.717 41.75 41.776 41.779h267.523c0.005 0 0.011 0 0.018 0 19.148 0 35.292-12.866 40.257-30.425l0.071-0.295 40.141 10.906c-10.011 35.683-42.24 61.415-80.484 61.44h-267.523c-46.040-0.058-83.347-37.365-83.405-83.399v-385.132c0.058-46.040 37.365-83.347 83.399-83.405h83.513v41.626h-83.507c-23.062 0.029-41.75 18.717-41.779 41.776v0.003z" />
<glyph unicode="&#xe90a;" glyph-name="edit" d="M654.336 773.171l-467.354-467.405 4.403-174.080 178.125-8.755 467.558 467.61zM778.24 590.438l-54.63-54.528-123.853 123.853 54.579 54.477zM353.28 165.478l-121.293 6.042-3.021 117.76 341.402 341.043 47.206-47.206-299.827-299.827 29.44-29.44 299.827 299.827 47.206-47.206z" />
<glyph unicode="&#xe90b;" glyph-name="delete" d="M784.282 609.28h-53.76v24.474c-0.029 30.229-24.468 54.741-54.668 54.886h-37.083v12.544c-0.029 39.728-32.212 71.929-71.93 71.987h-111.161c-39.768 0-72.009-32.224-72.038-71.984v-12.547h-52.224c-31.105 0-56.32-25.215-56.32-56.32v0-23.040h-35.379v-41.626h35.584v-371.149c0.058-40.667 33.010-73.619 73.671-73.677h307.819c40.689 0.029 73.67 32.992 73.728 73.671v371.155h53.709zM425.267 701.184c0.029 16.775 13.634 30.362 30.413 30.362 0 0 0 0 0 0h111.002c16.746-0.029 30.31-13.611 30.31-30.362 0 0 0 0 0 0v0-12.544h-171.725zM316.928 632.32c0 0 0 0 0 0 0 8.013 6.481 14.512 14.487 14.541h344.425c7.324 0 13.261-5.937 13.261-13.261v0-24.32h-372.173zM688.896 196.403c-0.029-17.708-14.391-32.051-32.102-32.051 0 0 0 0 0 0h-307.814c-17.69 0.029-32.022 14.362-32.051 32.048v371.254h371.968zM586.138 509.542h41.626v-275.763h-41.626v275.763zM378.061 509.542h41.626v-275.763h-41.626v275.763zM482.099 509.542h41.626v-275.763h-41.626v275.763z" />
<glyph unicode="&#xe90c;" glyph-name="serach" d="M872.243 130.048l-235.264 235.264c33.653 44.599 53.9 100.958 53.9 162.046 0 149.416-121.125 270.541-270.541 270.541s-270.541-121.125-270.541-270.541c0-149.416 121.125-270.541 270.541-270.541 73.642 0 140.412 29.424 189.195 77.156l-0.048-0.047 233.318-233.318zM421.069 298.394c-125.748 0-227.686 101.939-227.686 227.686s101.939 227.686 227.686 227.686c125.748 0 227.686-101.939 227.686-227.686 0-0.018 0-0.036 0-0.054v0.003c-0.175-125.667-102.015-227.49-227.672-227.635h-0.014z" />
<glyph unicode="&#xe90d;" glyph-name="close" d="M757.248 634.419l-58.829 58.829-186.419-186.368-186.419 186.368-58.829-58.829 186.368-186.419-186.368-186.419 58.829-58.829 186.419 186.368 186.419-186.368 58.829 58.829-186.368 186.419 186.368 186.419z" />
<glyph unicode="&#xe90e;" glyph-name="add" d="M817.254 489.626h-263.629v263.578h-83.2v-263.578h-263.68v-83.251h263.68v-263.578h83.2v263.578h263.629v83.251z" />
<glyph unicode="&#xe90f;" glyph-name="settings" d="M795.136 391.117v113.766h-94.31c-4.236 14.027-9.35 26.123-15.565 37.533l0.512-1.028 66.56 66.56-80.333 80.691-66.56-66.56c-10.367 5.7-22.446 10.813-35.067 14.686l-1.388 0.366v94.003h-113.869v-94.31c-14.028-4.237-26.124-9.351-37.534-15.565l1.028 0.513-66.56 66.56-80.691-80.333 66.56-66.56c-5.703-10.382-10.817-22.478-14.687-35.118l-0.366-1.388h-94.003v-113.715h94.31c4.236-14.027 9.35-26.123 15.565-37.533l-0.512 1.028-66.56-66.56 80.333-80.794 66.56 66.56c10.382-5.702 22.478-10.816 35.117-14.687l1.389-0.366v-94.003h113.715v94.31c14.028 4.237 26.124 9.351 37.534 15.565l-1.028-0.513 66.56-66.56 80.794 80.333-66.56 66.56c5.702 10.382 10.816 22.478 14.687 35.117l0.366 1.389zM512 361.523c-47.76 0-86.477 38.717-86.477 86.477s38.717 86.477 86.477 86.477c47.76 0 86.477-38.717 86.477-86.477v0c0-47.76-38.717-86.477-86.477-86.477v0z" />
<glyph unicode="&#xe910;" glyph-name="sendterminal" d="M746.394 480.461l-28.365-28.365 98.867-98.918-98.867-98.867 28.365-28.416 127.334 127.283-127.334 127.283zM838.042 261.837h76.954v-40.192h-76.954v40.192zM755.251 540.16v134.195h-646.298v-452.301h510.566v40.192h-470.374v354.099l282.982-192.461 282.982 192.41v-76.134zM194.304 634.163h475.597l-237.773-161.69z" />
<glyph unicode="&#xe911;" glyph-name="event" d="M715.418 392.858l-53.555-53.606-54.682 54.682-28.365-28.416 54.63-54.63-53.504-53.555 28.416-28.365 53.504 53.504 53.555-53.555 28.416 28.365-53.555 53.606 53.555 53.555-28.416 28.416zM313.395 459.52h31.078v-40.192h-31.078v40.192zM410.931 557.005h208.333v-40.192h-208.333v40.192zM313.395 557.005h31.078v-40.192h-31.078v40.192zM410.931 459.52h162.253v-40.192h-162.253v40.192zM515.072 288.87h-290.099v336.486h482.662v-185.907h40.192v323.533h-562.995v-514.253h330.24zM224.973 722.842h482.662v-56.73h-482.662z" />
<glyph unicode="&#xe912;" glyph-name="autoticketing" d="M847.974 630.067c-13.25 0.029-23.984 10.763-24.013 24.010v20.073h-621.363v-20.070c-0.023-13.038-10.412-23.642-23.364-24.012l-0.034-0.001-23.347 1.536v-367.923l21.299 1.331h2.048c12.814-0.449 23.055-10.851 23.245-23.687v-19.832h621.312v19.814c0.201 13.1 10.84 23.649 23.956 23.706h20.075v365.056zM196.096 303.104v289.229c20.557 6.028 36.577 21.475 43.284 41.223l0.134 0.454h405.606v-371.968h-405.862c-6.995 19.873-22.854 35.042-42.704 40.946l-0.458 0.117zM827.904 302.336c-19.107-6.556-33.905-21.254-40.462-39.841l-0.139-0.453h-102.042v371.968h101.786c6.562-19.404 21.556-34.398 40.505-40.826l0.455-0.134z" />
<glyph unicode="&#xe913;" glyph-name="queue1" d="M466.995 530.227h330.189v-40.192h-330.189v40.192zM337.766 382.003h459.418v-40.192h-459.418v40.192zM337.766 233.83h459.418v-40.192h-459.418v40.192zM340.326 532.48h-41.216v-65.843l-46.643-46.643 29.184-29.184 58.675 58.726v82.944zM208.486 448.256c0.058 66.116 53.64 119.698 119.751 119.757h0.006c0.073 0 0.159 0 0.245 0 19.318 0 37.559-4.616 53.678-12.804l-0.675 0.311v44.442c-15.951 5.822-34.365 9.189-53.565 9.189-88.761 0-160.717-71.955-160.717-160.717 0-60.838 33.804-113.781 83.653-141.070l0.837-0.42 19.507 35.84c-37.637 20.684-62.72 60.064-62.72 105.302 0 0.060 0 0.119 0 0.179v-0.009z" />
<glyph unicode="&#xe914;" glyph-name="clock" d="M512 167.731c-154.788 0-280.269 125.481-280.269 280.269s125.481 280.269 280.269 280.269c154.788 0 280.269-125.481 280.269-280.269v0c-0.204-154.706-125.562-280.065-280.249-280.269h-0.020zM512 688.128c-132.619 0-240.128-107.509-240.128-240.128s107.509-240.128 240.128-240.128c132.619 0 240.128 107.509 240.128 240.128v0c-0.291 132.502-107.626 239.837-240.1 240.128h-0.028zM596.634 334.95l-104.704 104.755v168.192h40.141v-151.603l92.979-92.928-28.416-28.416z" />
<glyph unicode="&#xe915;" glyph-name="smarpoint" d="M333.363 187.597l-28.416 28.416 233.165 233.114-233.165 233.216 28.416 28.365 261.53-261.581-261.53-261.53zM550.707 225.434h168.397v-40.192h-168.397v40.192z" />
<glyph unicode="&#xe916;" glyph-name="notification" d="M515.84 806.4c-0.015 0-0.033 0-0.051 0-207.157 0-375.091-167.934-375.091-375.091s167.934-375.091 375.091-375.091c207.157 0 375.091 167.934 375.091 375.091v0c0 207.139-167.905 375.062-375.037 375.091h-0.003zM483.686 238.336l-191.846 161.434 68.915 81.92 116.019-97.28 199.68 204.39 76.8-74.906z" />
<glyph unicode="&#xe917;" glyph-name="error" d="M520.55 809.83c-207.157 0-375.091-167.934-375.091-375.091s167.934-375.091 375.091-375.091c207.157 0 375.091 167.934 375.091 375.091v0c0 207.157-167.934 375.091-375.091 375.091v0zM520.55 213.811c-26.807 0-48.538 21.731-48.538 48.538s21.731 48.538 48.538 48.538c26.807 0 48.538-21.731 48.538-48.538v0c0-0.015 0-0.033 0-0.051 0-26.807-21.731-48.538-48.538-48.538 0 0 0 0 0 0v0zM564.070 377.344h-87.040l-15.104 289.638h117.197z" />
<glyph unicode="&#xe918;" glyph-name="warning" d="M939.11 212.48l-326.093 569.907c-8.574 14.771-24.316 24.546-42.342 24.546s-33.769-9.775-42.217-24.313l-0.125-0.233-337.715-590.387c-5.643-9.74-8.973-21.428-8.973-33.894 0-37.803 30.62-68.454 68.411-68.506h617.784c0.097 0 0.211-0.001 0.326-0.001 45.243 0 81.92 36.677 81.92 81.92 0 15.081-4.075 29.211-11.185 41.347l0.209-0.387zM565.76 163.84c-26.762 0.058-48.435 21.767-48.435 48.537 0 26.807 21.731 48.538 48.538 48.538 26.771 0 48.479-21.673 48.537-48.43v-0.006c0-0.061 0-0.133 0-0.205 0-26.807-21.731-48.538-48.538-48.538-0.036 0-0.072 0-0.108 0h0.006zM609.28 327.373h-87.040l-15.053 289.587h117.453z" />
</font>
</defs>
</svg>
